<svg width="18" height="18" viewBox="0 0 18 18" fill="none" xmlns="http://www.w3.org/2000/svg">
<path d="M8.99996 9.99824L11.9112 12.9097C12.0424 13.0408 12.2073 13.1079 12.406 13.111C12.6044 13.114 12.7724 13.0469 12.9097 12.9097C13.0469 12.7724 13.1155 12.6059 13.1155 12.4105C13.1155 12.215 13.0469 12.0486 12.9097 11.9112L9.99824 8.99996L12.9097 6.08871C13.0408 5.9575 13.1079 5.79258 13.111 5.59395C13.114 5.39547 13.0469 5.22755 12.9097 5.09019C12.7724 4.95298 12.6059 4.88437 12.4105 4.88437C12.215 4.88437 12.0486 4.95298 11.9112 5.09019L8.99996 8.00167L6.08871 5.09019C5.9575 4.95913 5.79258 4.89203 5.59395 4.88887C5.39547 4.88587 5.22755 4.95298 5.09019 5.09019C4.95298 5.22755 4.88437 5.39397 4.88437 5.58945C4.88437 5.78492 4.95298 5.95134 5.09019 6.08871L8.00167 8.99996L5.09019 11.9112C4.95914 12.0424 4.89203 12.2073 4.88887 12.406C4.88587 12.6044 4.95298 12.7724 5.09019 12.9097C5.22755 13.0469 5.39397 13.1155 5.58945 13.1155C5.78492 13.1155 5.95134 13.0469 6.08871 12.9097L8.99996 9.99824ZM9.00162 17.9999C7.75678 17.9999 6.58671 17.7637 5.4914 17.2913C4.39608 16.8189 3.44335 16.1777 2.6332 15.3679C1.82304 14.5581 1.1816 13.6057 0.708865 12.5109C0.236288 11.4161 0 10.2463 0 9.00162C0 7.75678 0.236209 6.58671 0.708628 5.4914C1.18105 4.39608 1.82218 3.44335 2.63201 2.6332C3.44185 1.82304 4.39419 1.1816 5.48903 0.708865C6.58386 0.236288 7.75362 0 8.9983 0C10.2431 0 11.4132 0.236209 12.5085 0.708628C13.6038 1.18105 14.5566 1.82218 15.3667 2.63201C16.1769 3.44185 16.8183 4.39419 17.2911 5.48903C17.7636 6.58386 17.9999 7.75362 17.9999 8.9983C17.9999 10.2431 17.7637 11.4132 17.2913 12.5085C16.8189 13.6038 16.1777 14.5566 15.3679 15.3667C14.5581 16.1769 13.6057 16.8183 12.5109 17.2911C11.4161 17.7636 10.2463 17.9999 9.00162 17.9999ZM8.99996 16.5789C11.1157 16.5789 12.9078 15.8447 14.3762 14.3762C15.8447 12.9078 16.5789 11.1157 16.5789 8.99996C16.5789 6.88418 15.8447 5.09208 14.3762 3.62367C12.9078 2.15525 11.1157 1.42105 8.99996 1.42105C6.88418 1.42105 5.09208 2.15525 3.62367 3.62367C2.15525 5.09208 1.42105 6.88418 1.42105 8.99996C1.42105 11.1157 2.15525 12.9078 3.62367 14.3762C5.09208 15.8447 6.88418 16.5789 8.99996 16.5789Z" fill="#1C1B1F"/>
</svg>
