<svg width="14" height="10" viewBox="0 0 14 10" fill="none" xmlns="http://www.w3.org/2000/svg">
<path d="M4.7074 8.30158L12.7954 0.21356C12.9346 0.0742107 13.0975 0.00305382 13.2842 8.89463e-05C13.4708 -0.00287593 13.6367 0.0682809 13.782 0.21356C13.9273 0.358839 13.9999 0.525652 13.9999 0.713999C13.9999 0.902503 13.9273 1.06939 13.782 1.21467L5.29983 9.71138C5.13052 9.88053 4.93304 9.96511 4.7074 9.96511C4.48176 9.96511 4.28428 9.88053 4.11497 9.71138L0.206018 5.80242C0.066825 5.66307 -0.00183527 5.49767 3.72853e-05 5.3062C0.00175379 5.11489 0.0752514 4.94659 0.22053 4.80131C0.365809 4.65603 0.532622 4.58339 0.72097 4.58339C0.909473 4.58339 1.07636 4.65603 1.22164 4.80131L4.7074 8.30158Z" fill="white"/>
</svg>
