<svg width="8" height="11" viewBox="0 0 8 11" fill="none" xmlns="http://www.w3.org/2000/svg">
<path d="M4.6365 10.8557L0.793941 6.85138C0.748323 6.80576 0.712412 6.75082 0.686206 6.68654C0.660108 6.62216 0.647059 6.55309 0.647059 6.47932V6.15951C0.647059 6.0094 0.698715 5.88268 0.802029 5.77937C0.905235 5.67605 1.03195 5.6244 1.18218 5.6244H2.75C3.36309 5.6244 3.90726 5.42801 4.38253 5.03525C4.8579 4.64249 5.12007 4.11718 5.16903 3.45934H0.485294C0.347578 3.45934 0.232294 3.41286 0.139441 3.3199C0.0464803 3.22704 0 3.11176 0 2.97404C0 2.83633 0.0464803 2.72099 0.139441 2.62803C0.232294 2.53518 0.347578 2.48875 0.485294 2.48875H5.03719C4.87866 2.04487 4.59288 1.6809 4.17984 1.39684C3.76669 1.11267 3.29008 0.970588 2.75 0.970588H0.485294C0.347578 0.970588 0.232294 0.924108 0.139441 0.831147C0.0464803 0.738294 0 0.62301 0 0.485294C0 0.347578 0.0464803 0.232294 0.139441 0.139441C0.232294 0.0464803 0.347578 0 0.485294 0H6.95588C7.0936 0 7.20888 0.0464803 7.30174 0.139441C7.3947 0.232294 7.44118 0.347578 7.44118 0.485294C7.44118 0.62301 7.3947 0.738294 7.30174 0.831147C7.20888 0.924108 7.0936 0.970588 6.95588 0.970588H5.11419C5.34401 1.15392 5.54519 1.37726 5.71774 1.64062C5.89028 1.90408 6.00686 2.18679 6.06747 2.48875H6.95588C7.0936 2.48875 7.20888 2.53518 7.30174 2.62803C7.3947 2.72099 7.44118 2.83633 7.44118 2.97404C7.44118 3.11176 7.3947 3.22704 7.30174 3.3199C7.20888 3.41286 7.0936 3.45934 6.95588 3.45934H6.14949C6.10473 4.376 5.75219 5.12778 5.09187 5.71466C4.43154 6.30154 3.65092 6.59499 2.75 6.59499H1.90138L5.33824 10.1737C5.48674 10.3289 5.51887 10.5054 5.43465 10.7032C5.35042 10.9011 5.20133 11 4.98737 11C4.9218 11 4.85893 10.988 4.79875 10.9639C4.73868 10.9399 4.6846 10.9038 4.6365 10.8557Z" fill="#1C1B1F"/>
</svg>
