<svg width="9" height="13" viewBox="0 0 9 13" fill="none" xmlns="http://www.w3.org/2000/svg">
<path d="M5.47957 12.8296L0.938306 8.0972C0.884394 8.04328 0.841953 7.97835 0.810982 7.90239C0.780138 7.8263 0.764716 7.74466 0.764716 7.65749V7.27952C0.764716 7.10211 0.825766 6.95235 0.947865 6.83025C1.06984 6.70815 1.21959 6.6471 1.39714 6.6471H3.25004C3.97461 6.6471 4.61774 6.41501 5.17942 5.95083C5.74123 5.48665 6.05107 4.86583 6.10893 4.08836H0.573537C0.41078 4.08836 0.274533 4.03343 0.164796 3.92357C0.054932 3.81383 0 3.67758 0 3.51483C0 3.35207 0.054932 3.21576 0.164796 3.1059C0.274533 2.99616 0.41078 2.94129 0.573537 2.94129H5.95312C5.76577 2.41669 5.42802 1.98654 4.93988 1.65083C4.4516 1.31499 3.88833 1.14707 3.25004 1.14707H0.573537C0.41078 1.14707 0.274533 1.09214 0.164796 0.982278C0.054932 0.872541 0 0.736294 0 0.573537C0 0.41078 0.054932 0.274533 0.164796 0.164796C0.274533 0.054932 0.41078 0 0.573537 0H8.2207C8.38346 0 8.5197 0.054932 8.62944 0.164796C8.7393 0.274533 8.79424 0.41078 8.79424 0.573537C8.79424 0.736294 8.7393 0.872541 8.62944 0.982278C8.5197 1.09214 8.38346 1.14707 8.2207 1.14707H6.04413C6.31573 1.36374 6.55349 1.6277 6.75742 1.93894C6.96134 2.2503 7.09912 2.58442 7.17074 2.94129H8.2207C8.38346 2.94129 8.5197 2.99616 8.62944 3.1059C8.7393 3.21576 8.79424 3.35207 8.79424 3.51483C8.79424 3.67758 8.7393 3.81383 8.62944 3.92357C8.5197 4.03343 8.38346 4.08836 8.2207 4.08836H7.26767C7.21478 5.17171 6.79814 6.06018 6.01774 6.75378C5.23735 7.44738 4.31478 7.79418 3.25004 7.79418H2.24712L6.30891 12.0236C6.48441 12.207 6.52239 12.4156 6.42285 12.6494C6.32331 12.8832 6.14711 13.0002 5.89424 13.0002C5.81675 13.0002 5.74245 12.986 5.67133 12.9575C5.60034 12.9291 5.53642 12.8865 5.47957 12.8296Z" fill="#1C1B1F"/>
</svg>
