<svg width="9" height="13" viewBox="0 0 9 13" fill="none" xmlns="http://www.w3.org/2000/svg">
<path d="M5.4795 12.8295L0.938294 8.09709C0.884382 8.04318 0.841941 7.97824 0.810971 7.90228C0.780128 7.82619 0.764706 7.74456 0.764706 7.65738V7.27943C0.764706 7.10201 0.825755 6.95226 0.947853 6.83016C1.06982 6.70806 1.21958 6.64701 1.39712 6.64701H3.25C3.97456 6.64701 4.61768 6.41493 5.17935 5.95075C5.74116 5.48657 6.05099 4.86576 6.10885 4.08831H0.573529C0.410775 4.08831 0.274529 4.03338 0.164794 3.92351C0.0549313 3.81378 0 3.67753 0 3.51478C0 3.35202 0.0549313 3.21572 0.164794 3.10585C0.274529 2.99612 0.410775 2.94125 0.573529 2.94125H5.95304C5.76569 2.41666 5.42795 1.98651 4.93981 1.65081C4.45154 1.31497 3.88827 1.14706 3.25 1.14706H0.573529C0.410775 1.14706 0.274529 1.09213 0.164794 0.982265C0.0549313 0.872529 0 0.736284 0 0.573529C0 0.410774 0.0549313 0.274529 0.164794 0.164794C0.274529 0.0549313 0.410775 0 0.573529 0H8.22059C8.38334 0 8.51959 0.0549313 8.62932 0.164794C8.73919 0.274529 8.79412 0.410774 8.79412 0.573529C8.79412 0.736284 8.73919 0.872529 8.62932 0.982265C8.51959 1.09213 8.38334 1.14706 8.22059 1.14706H6.04404C6.31564 1.36373 6.5534 1.62768 6.75732 1.93891C6.96125 2.25027 7.09902 2.58439 7.17065 2.94125H8.22059C8.38334 2.94125 8.51959 2.99612 8.62932 3.10585C8.73919 3.21572 8.79412 3.35202 8.79412 3.51478C8.79412 3.67753 8.73919 3.81378 8.62932 3.92351C8.51959 4.03338 8.38334 4.08831 8.22059 4.08831H7.26757C7.21468 5.17164 6.79804 6.0601 6.01766 6.75369C5.23728 7.44728 4.31473 7.79407 3.25 7.79407H2.24709L6.30882 12.0235C6.48432 12.2069 6.5223 12.4154 6.42277 12.6492C6.32323 12.8831 6.14702 13 5.89416 13C5.81667 13 5.74237 12.9858 5.67125 12.9574C5.60026 12.9289 5.53634 12.8863 5.4795 12.8295Z" fill="#1C1B1F"/>
</svg>
