<svg width="261" height="116" viewBox="0 0 261 116" fill="none" xmlns="http://www.w3.org/2000/svg">
<path d="M0.510663 114.807C0.510663 114.807 5.07996 110.563 8.21841 109.26C11.3569 107.956 16.7751 107.675 16.7751 107.675L25.7339 107.675L36.2868 104.406C36.9188 104.211 37.5057 103.891 38.0135 103.467L50.2558 93.2452L65.5686 86.2814L83.5484 81.9142C84.0358 81.7958 84.4967 81.5868 84.907 81.2982L97.4229 72.4932C97.868 72.1801 98.3722 71.9611 98.9048 71.8494L112.87 68.9208C113.489 68.7909 114.069 68.5161 114.562 68.1189L128.508 56.872C129.044 56.4394 129.683 56.1525 130.363 56.0393L144.34 53.7107L155.897 52.4258C157.129 52.2888 158.229 51.5879 158.874 50.5281L162.911 43.8952C163.073 43.6282 163.267 43.3811 163.487 43.159L171.998 34.5672C172.563 33.9969 173.286 33.6096 174.074 33.4556L194.712 29.4207C195.351 29.2958 195.949 29.0171 196.456 28.6087L208.89 18.5873C209.226 18.3165 209.604 18.1017 210.008 17.9514L226.913 11.6732L244.429 6.6688L260.742 0.705169" stroke="#4CAF50" stroke-width="1.5" stroke-dasharray="4 4"/>
</svg>
