<svg width="13" height="16" viewBox="0 0 13 16" fill="none" xmlns="http://www.w3.org/2000/svg">
<path d="M6.49996 14.6512C8.18466 13.143 9.47387 11.6964 10.3676 10.3114C11.2613 8.92639 11.7082 7.71332 11.7082 6.67219C11.7082 5.10231 11.2094 3.81174 10.2119 2.80046C9.21445 1.78918 7.97712 1.28354 6.49996 1.28354C5.0228 1.28354 3.78547 1.78918 2.78797 2.80046C1.79047 3.81174 1.29172 5.10231 1.29172 6.67219C1.29172 7.71332 1.73859 8.92639 2.63232 10.3114C3.52605 11.6964 4.81526 13.143 6.49996 14.6512ZM5.99662 15.7931C5.82869 15.7351 5.67684 15.6454 5.54107 15.524C4.76833 14.8118 4.04518 14.0784 3.37162 13.3237C2.6982 12.5692 2.11283 11.8149 1.61552 11.0608C1.11806 10.3067 0.724442 9.55934 0.434666 8.81861C0.144889 8.07773 0 7.36226 0 6.67219C0 4.68494 0.642777 3.0761 1.92833 1.84566C3.21403 0.615219 4.7379 0 6.49996 0C8.26202 0 9.78589 0.615219 11.0716 1.84566C12.3571 3.0761 12.9999 4.68494 12.9999 6.67219C12.9999 7.36226 12.855 8.0763 12.5653 8.8143C12.2755 9.55245 11.8833 10.2999 11.3887 11.0567C10.894 11.8135 10.3099 12.5678 9.63648 13.3196C8.96306 14.0715 8.23991 14.8035 7.46703 15.5156C7.33126 15.637 7.17812 15.728 7.00761 15.7888C6.83696 15.8495 6.66774 15.8798 6.49996 15.8798C6.33218 15.8798 6.1644 15.8509 5.99662 15.7931ZM7.60029 7.60869C7.90457 7.30456 8.0567 6.93778 8.0567 6.50836C8.0567 6.07893 7.90457 5.71208 7.60029 5.40781C7.29616 5.10368 6.92939 4.95161 6.49996 4.95161C6.07053 4.95161 5.70376 5.10368 5.39963 5.40781C5.09535 5.71208 4.94322 6.07893 4.94322 6.50836C4.94322 6.93778 5.09535 7.30456 5.39963 7.60869C5.70376 7.91282 6.07053 8.06488 6.49996 8.06488C6.92939 8.06488 7.29616 7.91282 7.60029 7.60869Z" fill="#4CAF50"/>
</svg>
