<svg width="16" height="19" viewBox="0 0 16 19" fill="none" xmlns="http://www.w3.org/2000/svg">
<path d="M7.77704 17.5298C9.79274 15.7253 11.3353 13.9945 12.4046 12.3373C13.4739 10.6802 14.0086 9.2288 14.0086 7.98311C14.0086 6.10479 13.4118 4.56065 12.2183 3.35068C11.0249 2.14071 9.54443 1.53573 7.77704 1.53573C6.00966 1.53573 4.52922 2.14071 3.33574 3.35068C2.14226 4.56065 1.54552 6.10479 1.54552 7.98311C1.54552 9.2288 2.08018 10.6802 3.14951 12.3373C4.21883 13.9945 5.76134 15.7253 7.77704 17.5298ZM7.17481 18.896C6.97389 18.8266 6.7922 18.7193 6.62975 18.574C5.70519 17.7219 4.83996 16.8444 4.03406 15.9415C3.22833 15.0387 2.52795 14.1362 1.93293 13.234C1.33773 12.3318 0.866778 11.4375 0.520067 10.5512C0.173356 9.66481 0 8.80876 0 7.98311C0 5.60542 0.769066 3.68048 2.3072 2.20829C3.8455 0.736095 5.66878 0 7.77704 0C9.8853 0 11.7086 0.736095 13.2469 2.20829C14.785 3.68048 15.5541 5.60542 15.5541 7.98311C15.5541 8.80876 15.3807 9.66309 15.034 10.5461C14.6873 11.4293 14.2181 12.3236 13.6263 13.2291C13.0344 14.1346 12.3355 15.0371 11.5298 15.9366C10.7241 16.8363 9.85885 17.7121 8.93412 18.564C8.77167 18.7093 8.58844 18.8182 8.38443 18.8909C8.18025 18.9635 7.97779 18.9998 7.77704 18.9998C7.5763 18.9998 7.37555 18.9652 7.17481 18.896ZM9.09356 9.10361C9.45762 8.73973 9.63965 8.30089 9.63965 7.78709C9.63965 7.27329 9.45762 6.83436 9.09356 6.47031C8.72968 6.10642 8.29084 5.92448 7.77704 5.92448C7.26324 5.92448 6.8244 6.10642 6.46052 6.47031C6.09646 6.83436 5.91444 7.27329 5.91444 7.78709C5.91444 8.30089 6.09646 8.73973 6.46052 9.10361C6.8244 9.4675 7.26324 9.64944 7.77704 9.64944C8.29084 9.64944 8.72968 9.4675 9.09356 9.10361Z" fill="#1C1B1F"/>
</svg>
