<svg width="143" height="149" viewBox="0 0 143 149" fill="none" xmlns="http://www.w3.org/2000/svg">
<path d="M61.1037 4.17386C66.9173 -1.3916 76.0827 -1.3916 81.8963 4.17386L86.1331 8.22979C89.4429 11.3983 94.0169 12.8845 98.5569 12.2665L104.369 11.4755C112.343 10.3901 119.758 15.7774 121.19 23.6971L122.234 29.4688C123.049 33.9776 125.876 37.8685 129.912 40.0371L135.079 42.8132C142.168 46.6225 145.001 55.3393 141.504 62.5882L138.956 67.871C136.965 71.9978 136.965 76.8073 138.956 80.9342L141.504 86.2169C145.001 93.4658 142.168 102.183 135.079 105.992L129.912 108.768C125.876 110.937 123.049 114.828 122.234 119.336L121.19 125.108C119.758 133.028 112.343 138.415 104.369 137.33L98.5569 136.539C94.0169 135.921 89.4429 137.407 86.1331 140.575L81.8963 144.631C76.0827 150.197 66.9173 150.197 61.1037 144.631L56.8669 140.575C53.5571 137.407 48.9831 135.921 44.4431 136.539L38.6314 137.33C30.6568 138.415 23.2418 133.028 21.8098 125.108L20.7662 119.336C19.9509 114.828 17.124 110.937 13.0878 108.768L7.92119 105.992C0.831611 102.183 -2.00066 93.4658 1.4959 86.2169L4.04408 80.9342C6.03472 76.8073 6.03472 71.9979 4.04408 67.871L1.4959 62.5882C-2.00066 55.3393 0.831607 46.6225 7.92118 42.8132L13.0878 40.0371C17.124 37.8685 19.9509 33.9776 20.7662 29.4688L21.8098 23.6972C23.2418 15.7774 30.6568 10.3901 38.6314 11.4755L44.4431 12.2665C48.9831 12.8845 53.5571 11.3983 56.8669 8.22979L61.1037 4.17386Z" fill="#377D3A"/>
</svg>
