<svg width="143" height="149" viewBox="0 0 143 149" fill="none" xmlns="http://www.w3.org/2000/svg">
<path d="M60.9656 4.16467C66.766 -1.38821 75.9107 -1.38821 81.7112 4.16467L85.9384 8.21143C89.2407 11.3728 93.8044 12.8556 98.3342 12.2391L104.133 11.4498C112.089 10.3669 119.487 15.742 120.916 23.6438L121.958 29.4024C122.771 33.901 125.591 37.7831 129.618 39.9469L134.773 42.7167C141.847 46.5173 144.673 55.2144 141.184 62.447L138.642 67.7178C136.656 71.8353 136.656 76.6339 138.642 80.7514L141.184 86.0223C144.673 93.2548 141.847 101.952 134.773 105.753L129.619 108.522C125.591 110.686 122.771 114.568 121.958 119.067L120.916 124.825C119.487 132.727 112.089 138.102 104.133 137.019L98.3342 136.23C93.8044 135.614 89.2407 137.096 85.9384 140.258L81.7112 144.305C75.9107 149.857 66.766 149.857 60.9656 144.305L56.7383 140.258C53.4361 137.096 48.8724 135.614 44.3426 136.23L38.5441 137.019C30.5875 138.102 23.1893 132.727 21.7605 124.825L20.7193 119.067C19.9058 114.568 17.0853 110.686 13.0583 108.522L7.90328 105.753C0.829731 101.952 -1.99614 93.2548 1.49252 86.0223L4.03494 80.7515C6.02108 76.6339 6.02108 71.8354 4.03494 67.7178L1.49252 62.447C-1.99614 55.2144 0.829727 46.5173 7.90328 42.7167L13.0583 39.9469C17.0853 37.7831 19.9058 33.901 20.7193 29.4024L21.7605 23.6438C23.1893 15.742 30.5875 10.3669 38.5441 11.4498L44.3426 12.2391C48.8724 12.8556 53.4361 11.3728 56.7383 8.21143L60.9656 4.16467Z" fill="#377D3A"/>
</svg>
